<svg width="40" height="40" viewBox="0 0 40 40" fill="none" xmlns="http://www.w3.org/2000/svg">
<path d="M20 40C31.0457 40 39.9999 31.0457 39.9999 20C39.9999 8.9543 31.0457 -2.7141e-06 20 -1.74846e-06C8.95429 -7.8281e-07 7.82809e-07 8.9543 1.74845e-06 20C2.7141e-06 31.0457 8.9543 40 20 40Z" fill="white"/>
<path d="M18.2608 20C18.2608 20 5.86954 34.1449 5.85782 34.1421C9.47703 37.7614 14.4771 40 20 40C31.0456 40 40 31.0456 40 20L18.2608 20Z" fill="#D80027"/>
<path d="M5.85778 5.85751C-1.95267 13.668 -1.95267 26.3313 5.85779 34.1419C9.08536 30.9143 12.1895 27.8102 20 19.9997L5.85778 5.85751Z" fill="#0052B4"/>
</svg>
