<svg width="40" height="40" viewBox="0 0 40 40" fill="none" xmlns="http://www.w3.org/2000/svg">
<path d="M1.24396 26.9565C4.06982 34.5724 11.4007 39.9999 20 39.9999C28.5993 39.9999 35.9302 34.5724 38.756 26.9565L20 25.2174L1.24396 26.9565Z" fill="#FFDA44"/>
<path d="M20 -3.05176e-05C11.4007 -3.05176e-05 4.06982 5.42744 1.24396 13.0434L20 14.7825L38.756 13.0433C35.9302 5.42744 28.5993 -3.05176e-05 20 -3.05176e-05Z" fill="black"/>
<path d="M1.24399 13.0437C0.440079 15.2104 0 17.5538 0 20.0002C0 22.4466 0.440079 24.79 1.24399 26.9566H38.7561C39.5601 24.79 40.0001 22.4466 40.0001 20.0002C40.0001 17.5538 39.5601 15.2104 38.7561 13.0437H1.24399Z" fill="#D80027"/>
</svg>
